<?xml version="1.0" standalone="no"?>
<!DOCTYPE svg PUBLIC "-//W3C//DTD SVG 20010904//EN"
 "http://www.w3.org/TR/2001/REC-SVG-20010904/DTD/svg10.dtd">
<svg version="1.0" xmlns="http://www.w3.org/2000/svg"
 width="32.000000pt" height="32.000000pt" viewBox="0 0 32.000000 32.000000"
 preserveAspectRatio="xMidYMid meet">

<g transform="translate(0.000000,32.000000) scale(0.100000,-0.100000)"
fill="#000000" stroke="none">
<path d="M0 160 l0 -160 160 0 160 0 0 160 0 160 -160 0 -160 0 0 -160z m206
71 c44 -24 33 -31 -26 -18 -28 7 -38 12 -26 15 15 3 16 6 5 13 -28 17 11 9 47
-10z m-83 -6 c-3 -9 -8 -14 -10 -11 -3 3 -2 9 2 15 9 16 15 13 8 -4z m39 -55
c29 0 61 -34 54 -57 -9 -27 -29 -36 -89 -38 -42 -1 -46 0 -34 13 11 11 19 11
35 3 31 -16 74 3 70 31 -2 15 -14 24 -43 32 -27 8 -41 18 -44 31 -3 19 -2 19
16 3 11 -10 27 -18 35 -18z m66 7 c6 -5 12 -14 12 -20 0 -5 -8 -3 -18 6 -10
10 -26 17 -35 17 -9 0 -18 4 -21 9 -7 11 45 1 62 -12z m-79 -37 c11 0 22 -4
25 -9 6 -9 -54 1 -73 13 -6 4 -11 3 -11 -2 0 -12 24 -22 50 -22 10 0 21 -3 23
-7 3 -5 -14 -7 -36 -7 -35 1 -43 5 -47 25 -4 13 -5 31 -2 40 3 14 7 13 27 -7
13 -13 33 -24 44 -24z"/>
</g>
</svg>
